<svg width="112" height="24" viewBox="0 0 112 24" fill="none" xmlns="http://www.w3.org/2000/svg">
<path d="M19.68 6.87994C18.661 6.34439 17.4727 6.22951 16.37 6.55994C16.3163 5.43841 15.833 4.38058 15.0203 3.60584C14.2076 2.83111 13.1278 2.39893 12.005 2.39893C10.8822 2.39893 9.80246 2.83111 8.98975 3.60584C8.17704 4.38058 7.69371 5.43841 7.64001 6.55994C6.5403 6.22875 5.35539 6.33257 4.33001 6.84994C3.57491 7.24683 2.95248 7.85604 2.53947 8.60245C2.12647 9.34886 1.94096 10.1998 2.00581 11.0504C2.07067 11.901 2.38306 12.714 2.90446 13.3892C3.42586 14.0643 4.13346 14.5721 4.94001 14.8499C4.4252 15.5825 4.14611 16.4546 4.14001 17.3499C4.14446 17.6013 4.16786 17.8521 4.21001 18.0999C4.37842 19.1155 4.90232 20.0381 5.68816 20.703C6.474 21.368 7.4706 21.7319 8.50001 21.7299C8.71313 21.7436 8.9269 21.7436 9.14001 21.7299C10.283 21.5499 11.3099 20.9287 12 19.9999C12.6973 20.9137 13.7232 21.5199 14.86 21.6899C15.0731 21.7036 15.2869 21.7036 15.5 21.6899C16.2982 21.689 17.0807 21.469 17.7625 21.0539C18.4442 20.6388 18.9989 20.0446 19.3661 19.3359C19.7333 18.6273 19.899 17.8314 19.845 17.0351C19.791 16.2388 19.5195 15.4726 19.06 14.8199C19.8705 14.5469 20.5828 14.0416 21.1083 13.3668C21.6337 12.692 21.9491 11.8776 22.0152 11.0249C22.0813 10.1723 21.8951 9.31898 21.4799 8.5713C21.0647 7.82362 20.4388 7.21456 19.68 6.81994V6.87994ZM10.34 4.93994C10.7868 4.51209 11.3814 4.27326 12 4.27326C12.6186 4.27326 13.2133 4.51209 13.66 4.93994C14.0011 5.28153 14.2327 5.71696 14.3253 6.19071C14.4179 6.66446 14.3673 7.15506 14.18 7.59994L13.92 8.18994L13.26 8.76994C12.8545 8.6295 12.4291 8.55521 12 8.54994C11.4456 8.55047 10.8973 8.66625 10.39 8.88994L9.83001 7.59994C9.63594 7.15702 9.58079 6.66565 9.67185 6.19072C9.7629 5.7158 9.99588 5.27967 10.34 4.93994ZM4.24001 11.7799C4.01677 11.2887 3.96784 10.736 4.1013 10.2132C4.23477 9.69037 4.54264 9.22875 4.97402 8.90463C5.40541 8.5805 5.93448 8.41329 6.47378 8.43062C7.01308 8.44795 7.53033 8.64879 7.94001 8.99994L8.43001 9.42994L8.78001 10.2299C8.27906 10.9002 8.00573 11.7132 8.00001 12.5499C7.98875 12.6997 7.98875 12.8502 8.00001 12.9999H7.45001L6.61001 13.0799C6.12956 13.1306 5.64509 13.0333 5.2215 12.801C4.79792 12.5686 4.45546 12.2124 4.24001 11.7799ZM10.84 17.8599C10.7196 18.3938 10.419 18.8698 9.98863 19.2079C9.55831 19.546 9.02462 19.7254 8.47746 19.716C7.9303 19.7066 7.40309 19.509 6.98463 19.1563C6.56616 18.8037 6.282 18.3176 6.18001 17.7799C6.1702 17.6401 6.1702 17.4998 6.18001 17.3599C6.18364 16.9535 6.29353 16.555 6.49878 16.2042C6.70402 15.8533 6.99748 15.5623 7.35001 15.3599L7.86001 14.9999L8.77001 14.8999C9.34357 15.6978 10.1908 16.2567 11.15 16.4699L10.84 17.8599ZM12 14.5499C11.6045 14.5499 11.2178 14.4326 10.8889 14.2129C10.56 13.9931 10.3036 13.6808 10.1523 13.3153C10.0009 12.9499 9.96127 12.5477 10.0384 12.1598C10.1156 11.7718 10.3061 11.4154 10.5858 11.1357C10.8655 10.856 11.2219 10.6655 11.6098 10.5884C11.9978 10.5112 12.3999 10.5508 12.7654 10.7022C13.1308 10.8536 13.4432 11.1099 13.663 11.4388C13.8827 11.7677 14 12.1544 14 12.5499C14 13.0804 13.7893 13.5891 13.4142 13.9642C13.0392 14.3392 12.5304 14.5499 12 14.5499ZM17.82 17.7699C17.7168 18.3801 17.3782 18.9253 16.8769 19.2882C16.3756 19.6511 15.7519 19.8025 15.14 19.7099C14.6579 19.642 14.208 19.4284 13.8506 19.0978C13.4932 18.7672 13.2453 18.3353 13.14 17.8599L13 17.2599L13.21 16.3399C14.1325 16.0395 14.9144 15.414 15.41 14.5799L15.91 14.8799H16L16.66 15.2699C17.0888 15.5148 17.4309 15.887 17.6387 16.335C17.8465 16.7829 17.9099 17.2844 17.82 17.7699ZM19.76 11.7699C19.5633 12.1674 19.2599 12.5023 18.8838 12.7372C18.5076 12.9721 18.0735 13.0977 17.63 13.0999H17.39L16.75 12.9999L16 12.5899C15.9986 11.6177 15.6431 10.6792 15 9.94994L15.43 9.57994L16.06 8.99994C16.4709 8.63468 16.9959 8.42361 17.5453 8.40287C18.0946 8.38213 18.6341 8.55301 19.0713 8.88624C19.5085 9.21948 19.8163 9.69435 19.942 10.2295C20.0676 10.7647 20.0033 11.327 19.76 11.8199V11.7699Z" fill="#F5F5F5"/>
<path d="M31.5547 15.3281L32.7422 15.5078C32.5443 16.3932 32.1849 17.0625 31.6641 17.5156C31.1484 17.9635 30.5078 18.1875 29.7422 18.1875C28.7786 18.1875 27.9974 17.8229 27.3984 17.0938C26.8047 16.3594 26.5078 15.3021 26.5078 13.9219C26.5078 12.4896 26.8073 11.3984 27.4062 10.6484C28.0104 9.89323 28.7734 9.51562 29.6953 9.51562C30.5755 9.51562 31.3099 9.88542 31.8984 10.625C32.487 11.3646 32.7812 12.4349 32.7812 13.8359L32.7734 14.2109H27.6953C27.7422 15.1432 27.9583 15.8464 28.3438 16.3203C28.7292 16.7943 29.1979 17.0312 29.75 17.0312C30.6146 17.0312 31.2161 16.4635 31.5547 15.3281ZM27.7656 13.0547H31.5625C31.5104 12.3359 31.3568 11.7995 31.1016 11.4453C30.7318 10.9297 30.2604 10.6719 29.6875 10.6719C29.1719 10.6719 28.7318 10.888 28.3672 11.3203C28.0026 11.7474 27.8021 12.3255 27.7656 13.0547ZM33.4453 18L35.9297 13.6875L33.6328 9.70312H35.0703L36.1172 11.6484C36.3099 12.0078 36.4688 12.3177 36.5938 12.5781C36.7865 12.224 36.9583 11.9193 37.1094 11.6641L38.2578 9.70312H39.6328L37.2812 13.6094L39.8125 18H38.3984L37 15.4219L36.6328 14.7266L34.8438 18H33.4453ZM43.3281 16.7422L43.4844 17.9844C43.1667 18.0677 42.8802 18.1094 42.625 18.1094C42.224 18.1094 41.901 18.0312 41.6562 17.875C41.4115 17.7135 41.2422 17.4948 41.1484 17.2188C41.0599 16.9427 41.0156 16.3932 41.0156 15.5703V10.7969H40.1719V9.70312H41.0156V7.64844L42.1641 6.80469V9.70312H43.3281V10.7969H42.1641V15.6484C42.1641 16.0964 42.1979 16.3854 42.2656 16.5156C42.3646 16.7031 42.5495 16.7969 42.8203 16.7969C42.9505 16.7969 43.1198 16.7786 43.3281 16.7422ZM49.0703 15.3281L50.2578 15.5078C50.0599 16.3932 49.7005 17.0625 49.1797 17.5156C48.6641 17.9635 48.0234 18.1875 47.2578 18.1875C46.2943 18.1875 45.513 17.8229 44.9141 17.0938C44.3203 16.3594 44.0234 15.3021 44.0234 13.9219C44.0234 12.4896 44.3229 11.3984 44.9219 10.6484C45.526 9.89323 46.2891 9.51562 47.2109 9.51562C48.0911 9.51562 48.8255 9.88542 49.4141 10.625C50.0026 11.3646 50.2969 12.4349 50.2969 13.8359L50.2891 14.2109H45.2109C45.2578 15.1432 45.474 15.8464 45.8594 16.3203C46.2448 16.7943 46.7135 17.0312 47.2656 17.0312C48.1302 17.0312 48.7318 16.4635 49.0703 15.3281ZM45.2812 13.0547H49.0781C49.026 12.3359 48.8724 11.7995 48.6172 11.4453C48.2474 10.9297 47.776 10.6719 47.2031 10.6719C46.6875 10.6719 46.2474 10.888 45.8828 11.3203C45.5182 11.7474 45.3177 12.3255 45.2812 13.0547ZM51.7109 18V9.70312H52.75V10.9609C53.0156 10.3776 53.2578 9.99219 53.4766 9.80469C53.7005 9.61198 53.9505 9.51562 54.2266 9.51562C54.612 9.51562 55.0052 9.66667 55.4062 9.96875L55.0156 11.2734C54.7292 11.0703 54.4505 10.9688 54.1797 10.9688C53.9349 10.9688 53.7109 11.0547 53.5078 11.2266C53.3047 11.3984 53.1615 11.638 53.0781 11.9453C52.9323 12.4818 52.8594 13.0521 52.8594 13.6562V18H51.7109ZM56.0859 18V9.70312H57.125V10.8828C57.375 10.4245 57.6797 10.0833 58.0391 9.85938C58.4036 9.63021 58.8203 9.51562 59.2891 9.51562C59.6536 9.51562 59.9896 9.58854 60.2969 9.73438C60.6094 9.875 60.8594 10.0625 61.0469 10.2969C61.2396 10.526 61.3828 10.8255 61.4766 11.1953C61.5703 11.5651 61.6172 12.1328 61.6172 12.8984V18H60.4609V12.9531C60.4609 12.3438 60.4089 11.8984 60.3047 11.6172C60.2005 11.3359 60.0365 11.1198 59.8125 10.9688C59.5938 10.8125 59.3385 10.7344 59.0469 10.7344C58.4948 10.7344 58.0547 10.9401 57.7266 11.3516C57.3984 11.763 57.2344 12.4688 57.2344 13.4688V18H56.0859ZM67.8203 16.9766C67.4349 17.3776 67.0339 17.6797 66.6172 17.8828C66.2005 18.0859 65.7682 18.1875 65.3203 18.1875C64.612 18.1875 64.0469 17.974 63.625 17.5469C63.2031 17.1198 62.9922 16.5443 62.9922 15.8203C62.9922 15.3411 63.0911 14.9167 63.2891 14.5469C63.487 14.1771 63.7578 13.888 64.1016 13.6797C64.4453 13.4714 64.9661 13.3177 65.6641 13.2188C66.6016 13.0833 67.2891 12.9219 67.7266 12.7344L67.7344 12.375C67.7344 11.8073 67.6328 11.4089 67.4297 11.1797C67.1432 10.8464 66.7031 10.6797 66.1094 10.6797C65.5729 10.6797 65.1719 10.7917 64.9062 11.0156C64.6406 11.2344 64.4453 11.6484 64.3203 12.2578L63.1875 12.0703C63.349 11.1797 63.6745 10.5312 64.1641 10.125C64.6589 9.71875 65.3646 9.51562 66.2812 9.51562C66.9948 9.51562 67.5547 9.65104 67.9609 9.92188C68.3672 10.1875 68.6224 10.5182 68.7266 10.9141C68.8359 11.3099 68.8906 11.888 68.8906 12.6484V14.5234C68.8906 15.8359 68.9141 16.6641 68.9609 17.0078C69.013 17.3464 69.112 17.6771 69.2578 18H68.0547C67.9349 17.7135 67.8568 17.3724 67.8203 16.9766ZM67.7266 13.8359C67.3047 14.0443 66.6771 14.2214 65.8438 14.3672C65.3594 14.4505 65.0208 14.5469 64.8281 14.6562C64.6354 14.7604 64.4844 14.9115 64.375 15.1094C64.2708 15.3021 64.2188 15.526 64.2188 15.7812C64.2188 16.1771 64.3411 16.4948 64.5859 16.7344C64.8307 16.9688 65.1693 17.0859 65.6016 17.0859C66.013 17.0859 66.3854 16.9792 66.7188 16.7656C67.0573 16.5521 67.3099 16.2682 67.4766 15.9141C67.6432 15.5547 67.7266 15.0339 67.7266 14.3516V13.8359ZM70.6484 18V6.54688H71.7969V18H70.6484ZM81.6953 16.9766C81.3099 17.3776 80.9089 17.6797 80.4922 17.8828C80.0755 18.0859 79.6432 18.1875 79.1953 18.1875C78.487 18.1875 77.9219 17.974 77.5 17.5469C77.0781 17.1198 76.8672 16.5443 76.8672 15.8203C76.8672 15.3411 76.9661 14.9167 77.1641 14.5469C77.362 14.1771 77.6328 13.888 77.9766 13.6797C78.3203 13.4714 78.8411 13.3177 79.5391 13.2188C80.4766 13.0833 81.1641 12.9219 81.6016 12.7344L81.6094 12.375C81.6094 11.8073 81.5078 11.4089 81.3047 11.1797C81.0182 10.8464 80.5781 10.6797 79.9844 10.6797C79.4479 10.6797 79.0469 10.7917 78.7812 11.0156C78.5156 11.2344 78.3203 11.6484 78.1953 12.2578L77.0625 12.0703C77.224 11.1797 77.5495 10.5312 78.0391 10.125C78.5339 9.71875 79.2396 9.51562 80.1562 9.51562C80.8698 9.51562 81.4297 9.65104 81.8359 9.92188C82.2422 10.1875 82.4974 10.5182 82.6016 10.9141C82.7109 11.3099 82.7656 11.888 82.7656 12.6484V14.5234C82.7656 15.8359 82.7891 16.6641 82.8359 17.0078C82.888 17.3464 82.987 17.6771 83.1328 18H81.9297C81.8099 17.7135 81.7318 17.3724 81.6953 16.9766ZM81.6016 13.8359C81.1797 14.0443 80.5521 14.2214 79.7188 14.3672C79.2344 14.4505 78.8958 14.5469 78.7031 14.6562C78.5104 14.7604 78.3594 14.9115 78.25 15.1094C78.1458 15.3021 78.0938 15.526 78.0938 15.7812C78.0938 16.1771 78.2161 16.4948 78.4609 16.7344C78.7057 16.9688 79.0443 17.0859 79.4766 17.0859C79.888 17.0859 80.2604 16.9792 80.5938 16.7656C80.9323 16.5521 81.1849 16.2682 81.3516 15.9141C81.5182 15.5547 81.6016 15.0339 81.6016 14.3516V13.8359ZM84.8828 18V10.7969H83.8594V9.70312H84.8828V8.82031C84.8828 8.16927 84.9505 7.68229 85.0859 7.35938C85.2214 7.03125 85.4271 6.78125 85.7031 6.60938C85.9844 6.4375 86.3359 6.35156 86.7578 6.35156C87.0859 6.35156 87.4453 6.39844 87.8359 6.49219L87.6641 7.71875C87.4245 7.66667 87.1979 7.64062 86.9844 7.64062C86.6406 7.64062 86.3932 7.73177 86.2422 7.91406C86.0964 8.09115 86.0234 8.43229 86.0234 8.9375V9.70312H87.3516V10.7969H86.0234V18H84.8828ZM88.3047 18V10.7969H87.2812V9.70312H88.3047V8.82031C88.3047 8.16927 88.3724 7.68229 88.5078 7.35938C88.6432 7.03125 88.849 6.78125 89.125 6.60938C89.4062 6.4375 89.7578 6.35156 90.1797 6.35156C90.5078 6.35156 90.8672 6.39844 91.2578 6.49219L91.0859 7.71875C90.8464 7.66667 90.6198 7.64062 90.4062 7.64062C90.0625 7.64062 89.8151 7.73177 89.6641 7.91406C89.5182 8.09115 89.4453 8.43229 89.4453 8.9375V9.70312H90.7734V10.7969H89.4453V18H88.3047ZM96.0703 16.9766C95.6849 17.3776 95.2839 17.6797 94.8672 17.8828C94.4505 18.0859 94.0182 18.1875 93.5703 18.1875C92.862 18.1875 92.2969 17.974 91.875 17.5469C91.4531 17.1198 91.2422 16.5443 91.2422 15.8203C91.2422 15.3411 91.3411 14.9167 91.5391 14.5469C91.737 14.1771 92.0078 13.888 92.3516 13.6797C92.6953 13.4714 93.2161 13.3177 93.9141 13.2188C94.8516 13.0833 95.5391 12.9219 95.9766 12.7344L95.9844 12.375C95.9844 11.8073 95.8828 11.4089 95.6797 11.1797C95.3932 10.8464 94.9531 10.6797 94.3594 10.6797C93.8229 10.6797 93.4219 10.7917 93.1562 11.0156C92.8906 11.2344 92.6953 11.6484 92.5703 12.2578L91.4375 12.0703C91.599 11.1797 91.9245 10.5312 92.4141 10.125C92.9089 9.71875 93.6146 9.51562 94.5312 9.51562C95.2448 9.51562 95.8047 9.65104 96.2109 9.92188C96.6172 10.1875 96.8724 10.5182 96.9766 10.9141C97.0859 11.3099 97.1406 11.888 97.1406 12.6484V14.5234C97.1406 15.8359 97.1641 16.6641 97.2109 17.0078C97.263 17.3464 97.362 17.6771 97.5078 18H96.3047C96.1849 17.7135 96.1068 17.3724 96.0703 16.9766ZM95.9766 13.8359C95.5547 14.0443 94.9271 14.2214 94.0938 14.3672C93.6094 14.4505 93.2708 14.5469 93.0781 14.6562C92.8854 14.7604 92.7344 14.9115 92.625 15.1094C92.5208 15.3021 92.4688 15.526 92.4688 15.7812C92.4688 16.1771 92.5911 16.4948 92.8359 16.7344C93.0807 16.9688 93.4193 17.0859 93.8516 17.0859C94.263 17.0859 94.6354 16.9792 94.9688 16.7656C95.3073 16.5521 95.5599 16.2682 95.7266 15.9141C95.8932 15.5547 95.9766 15.0339 95.9766 14.3516V13.8359ZM98.9297 8.16406V6.54688H100.078V8.16406H98.9297ZM98.9297 18V9.70312H100.078V18H98.9297ZM101.852 18V9.70312H102.891V10.9609C103.156 10.3776 103.398 9.99219 103.617 9.80469C103.841 9.61198 104.091 9.51562 104.367 9.51562C104.753 9.51562 105.146 9.66667 105.547 9.96875L105.156 11.2734C104.87 11.0703 104.591 10.9688 104.32 10.9688C104.076 10.9688 103.852 11.0547 103.648 11.2266C103.445 11.3984 103.302 11.638 103.219 11.9453C103.073 12.4818 103 13.0521 103 13.6562V18H101.852ZM105.789 15.5234L106.93 15.3047C106.997 15.888 107.182 16.3229 107.484 16.6094C107.786 16.8906 108.188 17.0312 108.688 17.0312C109.188 17.0312 109.573 16.9089 109.844 16.6641C110.12 16.4141 110.258 16.099 110.258 15.7188C110.258 15.3906 110.141 15.1354 109.906 14.9531C109.745 14.8281 109.354 14.6719 108.734 14.4844C107.839 14.2083 107.24 13.974 106.938 13.7812C106.635 13.5885 106.401 13.3307 106.234 13.0078C106.068 12.6849 105.984 12.3177 105.984 11.9062C105.984 11.1979 106.211 10.6224 106.664 10.1797C107.117 9.73698 107.745 9.51562 108.547 9.51562C109.052 9.51562 109.495 9.60677 109.875 9.78906C110.26 9.97135 110.555 10.2161 110.758 10.5234C110.961 10.8307 111.102 11.2708 111.18 11.8438L110.055 12.0312C109.951 11.125 109.458 10.6719 108.578 10.6719C108.078 10.6719 107.706 10.7734 107.461 10.9766C107.216 11.1745 107.094 11.4297 107.094 11.7422C107.094 12.0495 107.211 12.2917 107.445 12.4688C107.586 12.5729 108.003 12.7396 108.695 12.9688C109.648 13.276 110.266 13.5208 110.547 13.7031C110.828 13.8802 111.047 14.125 111.203 14.4375C111.359 14.7448 111.438 15.112 111.438 15.5391C111.438 16.3307 111.185 16.9714 110.68 17.4609C110.18 17.9505 109.495 18.1953 108.625 18.1953C106.995 18.1953 106.049 17.3047 105.789 15.5234Z" fill="#F5F5F5"/>
</svg>
