<svg width="116" height="24" viewBox="0 0 116 24" fill="none" xmlns="http://www.w3.org/2000/svg">
<path d="M12.001 0.629883L14.904 8.97988L23.743 9.16088L16.698 14.5019L19.258 22.9639L12 17.9139L4.74401 22.9639L7.30401 14.5019L0.26001 9.16088L9.09901 8.98088L12.001 0.629883Z" fill="#F5F5F5"/>
<path d="M33.5547 15.3281L34.7422 15.5078C34.5443 16.3932 34.1849 17.0625 33.6641 17.5156C33.1484 17.9635 32.5078 18.1875 31.7422 18.1875C30.7786 18.1875 29.9974 17.8229 29.3984 17.0938C28.8047 16.3594 28.5078 15.3021 28.5078 13.9219C28.5078 12.4896 28.8073 11.3984 29.4062 10.6484C30.0104 9.89323 30.7734 9.51562 31.6953 9.51562C32.5755 9.51562 33.3099 9.88542 33.8984 10.625C34.487 11.3646 34.7812 12.4349 34.7812 13.8359L34.7734 14.2109H29.6953C29.7422 15.1432 29.9583 15.8464 30.3438 16.3203C30.7292 16.7943 31.1979 17.0312 31.75 17.0312C32.6146 17.0312 33.2161 16.4635 33.5547 15.3281ZM29.7656 13.0547H33.5625C33.5104 12.3359 33.3568 11.7995 33.1016 11.4453C32.7318 10.9297 32.2604 10.6719 31.6875 10.6719C31.1719 10.6719 30.7318 10.888 30.3672 11.3203C30.0026 11.7474 29.8021 12.3255 29.7656 13.0547ZM35.4453 18L37.9297 13.6875L35.6328 9.70312H37.0703L38.1172 11.6484C38.3099 12.0078 38.4688 12.3177 38.5938 12.5781C38.7865 12.224 38.9583 11.9193 39.1094 11.6641L40.2578 9.70312H41.6328L39.2812 13.6094L41.8125 18H40.3984L39 15.4219L38.6328 14.7266L36.8438 18H35.4453ZM45.3281 16.7422L45.4844 17.9844C45.1667 18.0677 44.8802 18.1094 44.625 18.1094C44.224 18.1094 43.901 18.0312 43.6562 17.875C43.4115 17.7135 43.2422 17.4948 43.1484 17.2188C43.0599 16.9427 43.0156 16.3932 43.0156 15.5703V10.7969H42.1719V9.70312H43.0156V7.64844L44.1641 6.80469V9.70312H45.3281V10.7969H44.1641V15.6484C44.1641 16.0964 44.1979 16.3854 44.2656 16.5156C44.3646 16.7031 44.5495 16.7969 44.8203 16.7969C44.9505 16.7969 45.1198 16.7786 45.3281 16.7422ZM51.0703 15.3281L52.2578 15.5078C52.0599 16.3932 51.7005 17.0625 51.1797 17.5156C50.6641 17.9635 50.0234 18.1875 49.2578 18.1875C48.2943 18.1875 47.513 17.8229 46.9141 17.0938C46.3203 16.3594 46.0234 15.3021 46.0234 13.9219C46.0234 12.4896 46.3229 11.3984 46.9219 10.6484C47.526 9.89323 48.2891 9.51562 49.2109 9.51562C50.0911 9.51562 50.8255 9.88542 51.4141 10.625C52.0026 11.3646 52.2969 12.4349 52.2969 13.8359L52.2891 14.2109H47.2109C47.2578 15.1432 47.474 15.8464 47.8594 16.3203C48.2448 16.7943 48.7135 17.0312 49.2656 17.0312C50.1302 17.0312 50.7318 16.4635 51.0703 15.3281ZM47.2812 13.0547H51.0781C51.026 12.3359 50.8724 11.7995 50.6172 11.4453C50.2474 10.9297 49.776 10.6719 49.2031 10.6719C48.6875 10.6719 48.2474 10.888 47.8828 11.3203C47.5182 11.7474 47.3177 12.3255 47.2812 13.0547ZM53.7109 18V9.70312H54.75V10.9609C55.0156 10.3776 55.2578 9.99219 55.4766 9.80469C55.7005 9.61198 55.9505 9.51562 56.2266 9.51562C56.612 9.51562 57.0052 9.66667 57.4062 9.96875L57.0156 11.2734C56.7292 11.0703 56.4505 10.9688 56.1797 10.9688C55.9349 10.9688 55.7109 11.0547 55.5078 11.2266C55.3047 11.3984 55.1615 11.638 55.0781 11.9453C54.9323 12.4818 54.8594 13.0521 54.8594 13.6562V18H53.7109ZM58.0859 18V9.70312H59.125V10.8828C59.375 10.4245 59.6797 10.0833 60.0391 9.85938C60.4036 9.63021 60.8203 9.51562 61.2891 9.51562C61.6536 9.51562 61.9896 9.58854 62.2969 9.73438C62.6094 9.875 62.8594 10.0625 63.0469 10.2969C63.2396 10.526 63.3828 10.8255 63.4766 11.1953C63.5703 11.5651 63.6172 12.1328 63.6172 12.8984V18H62.4609V12.9531C62.4609 12.3438 62.4089 11.8984 62.3047 11.6172C62.2005 11.3359 62.0365 11.1198 61.8125 10.9688C61.5938 10.8125 61.3385 10.7344 61.0469 10.7344C60.4948 10.7344 60.0547 10.9401 59.7266 11.3516C59.3984 11.763 59.2344 12.4688 59.2344 13.4688V18H58.0859ZM69.8203 16.9766C69.4349 17.3776 69.0339 17.6797 68.6172 17.8828C68.2005 18.0859 67.7682 18.1875 67.3203 18.1875C66.612 18.1875 66.0469 17.974 65.625 17.5469C65.2031 17.1198 64.9922 16.5443 64.9922 15.8203C64.9922 15.3411 65.0911 14.9167 65.2891 14.5469C65.487 14.1771 65.7578 13.888 66.1016 13.6797C66.4453 13.4714 66.9661 13.3177 67.6641 13.2188C68.6016 13.0833 69.2891 12.9219 69.7266 12.7344L69.7344 12.375C69.7344 11.8073 69.6328 11.4089 69.4297 11.1797C69.1432 10.8464 68.7031 10.6797 68.1094 10.6797C67.5729 10.6797 67.1719 10.7917 66.9062 11.0156C66.6406 11.2344 66.4453 11.6484 66.3203 12.2578L65.1875 12.0703C65.349 11.1797 65.6745 10.5312 66.1641 10.125C66.6589 9.71875 67.3646 9.51562 68.2812 9.51562C68.9948 9.51562 69.5547 9.65104 69.9609 9.92188C70.3672 10.1875 70.6224 10.5182 70.7266 10.9141C70.8359 11.3099 70.8906 11.888 70.8906 12.6484V14.5234C70.8906 15.8359 70.9141 16.6641 70.9609 17.0078C71.013 17.3464 71.112 17.6771 71.2578 18H70.0547C69.9349 17.7135 69.8568 17.3724 69.8203 16.9766ZM69.7266 13.8359C69.3047 14.0443 68.6771 14.2214 67.8438 14.3672C67.3594 14.4505 67.0208 14.5469 66.8281 14.6562C66.6354 14.7604 66.4844 14.9115 66.375 15.1094C66.2708 15.3021 66.2188 15.526 66.2188 15.7812C66.2188 16.1771 66.3411 16.4948 66.5859 16.7344C66.8307 16.9688 67.1693 17.0859 67.6016 17.0859C68.013 17.0859 68.3854 16.9792 68.7188 16.7656C69.0573 16.5521 69.3099 16.2682 69.4766 15.9141C69.6432 15.5547 69.7266 15.0339 69.7266 14.3516V13.8359ZM72.6484 18V6.54688H73.7969V18H72.6484ZM83.6953 16.9766C83.3099 17.3776 82.9089 17.6797 82.4922 17.8828C82.0755 18.0859 81.6432 18.1875 81.1953 18.1875C80.487 18.1875 79.9219 17.974 79.5 17.5469C79.0781 17.1198 78.8672 16.5443 78.8672 15.8203C78.8672 15.3411 78.9661 14.9167 79.1641 14.5469C79.362 14.1771 79.6328 13.888 79.9766 13.6797C80.3203 13.4714 80.8411 13.3177 81.5391 13.2188C82.4766 13.0833 83.1641 12.9219 83.6016 12.7344L83.6094 12.375C83.6094 11.8073 83.5078 11.4089 83.3047 11.1797C83.0182 10.8464 82.5781 10.6797 81.9844 10.6797C81.4479 10.6797 81.0469 10.7917 80.7812 11.0156C80.5156 11.2344 80.3203 11.6484 80.1953 12.2578L79.0625 12.0703C79.224 11.1797 79.5495 10.5312 80.0391 10.125C80.5339 9.71875 81.2396 9.51562 82.1562 9.51562C82.8698 9.51562 83.4297 9.65104 83.8359 9.92188C84.2422 10.1875 84.4974 10.5182 84.6016 10.9141C84.7109 11.3099 84.7656 11.888 84.7656 12.6484V14.5234C84.7656 15.8359 84.7891 16.6641 84.8359 17.0078C84.888 17.3464 84.987 17.6771 85.1328 18H83.9297C83.8099 17.7135 83.7318 17.3724 83.6953 16.9766ZM83.6016 13.8359C83.1797 14.0443 82.5521 14.2214 81.7188 14.3672C81.2344 14.4505 80.8958 14.5469 80.7031 14.6562C80.5104 14.7604 80.3594 14.9115 80.25 15.1094C80.1458 15.3021 80.0938 15.526 80.0938 15.7812C80.0938 16.1771 80.2161 16.4948 80.4609 16.7344C80.7057 16.9688 81.0443 17.0859 81.4766 17.0859C81.888 17.0859 82.2604 16.9792 82.5938 16.7656C82.9323 16.5521 83.1849 16.2682 83.3516 15.9141C83.5182 15.5547 83.6016 15.0339 83.6016 14.3516V13.8359ZM86.8828 18V10.7969H85.8594V9.70312H86.8828V8.82031C86.8828 8.16927 86.9505 7.68229 87.0859 7.35938C87.2214 7.03125 87.4271 6.78125 87.7031 6.60938C87.9844 6.4375 88.3359 6.35156 88.7578 6.35156C89.0859 6.35156 89.4453 6.39844 89.8359 6.49219L89.6641 7.71875C89.4245 7.66667 89.1979 7.64062 88.9844 7.64062C88.6406 7.64062 88.3932 7.73177 88.2422 7.91406C88.0964 8.09115 88.0234 8.43229 88.0234 8.9375V9.70312H89.3516V10.7969H88.0234V18H86.8828ZM90.3047 18V10.7969H89.2812V9.70312H90.3047V8.82031C90.3047 8.16927 90.3724 7.68229 90.5078 7.35938C90.6432 7.03125 90.849 6.78125 91.125 6.60938C91.4062 6.4375 91.7578 6.35156 92.1797 6.35156C92.5078 6.35156 92.8672 6.39844 93.2578 6.49219L93.0859 7.71875C92.8464 7.66667 92.6198 7.64062 92.4062 7.64062C92.0625 7.64062 91.8151 7.73177 91.6641 7.91406C91.5182 8.09115 91.4453 8.43229 91.4453 8.9375V9.70312H92.7734V10.7969H91.4453V18H90.3047ZM98.0703 16.9766C97.6849 17.3776 97.2839 17.6797 96.8672 17.8828C96.4505 18.0859 96.0182 18.1875 95.5703 18.1875C94.862 18.1875 94.2969 17.974 93.875 17.5469C93.4531 17.1198 93.2422 16.5443 93.2422 15.8203C93.2422 15.3411 93.3411 14.9167 93.5391 14.5469C93.737 14.1771 94.0078 13.888 94.3516 13.6797C94.6953 13.4714 95.2161 13.3177 95.9141 13.2188C96.8516 13.0833 97.5391 12.9219 97.9766 12.7344L97.9844 12.375C97.9844 11.8073 97.8828 11.4089 97.6797 11.1797C97.3932 10.8464 96.9531 10.6797 96.3594 10.6797C95.8229 10.6797 95.4219 10.7917 95.1562 11.0156C94.8906 11.2344 94.6953 11.6484 94.5703 12.2578L93.4375 12.0703C93.599 11.1797 93.9245 10.5312 94.4141 10.125C94.9089 9.71875 95.6146 9.51562 96.5312 9.51562C97.2448 9.51562 97.8047 9.65104 98.2109 9.92188C98.6172 10.1875 98.8724 10.5182 98.9766 10.9141C99.0859 11.3099 99.1406 11.888 99.1406 12.6484V14.5234C99.1406 15.8359 99.1641 16.6641 99.2109 17.0078C99.263 17.3464 99.362 17.6771 99.5078 18H98.3047C98.1849 17.7135 98.1068 17.3724 98.0703 16.9766ZM97.9766 13.8359C97.5547 14.0443 96.9271 14.2214 96.0938 14.3672C95.6094 14.4505 95.2708 14.5469 95.0781 14.6562C94.8854 14.7604 94.7344 14.9115 94.625 15.1094C94.5208 15.3021 94.4688 15.526 94.4688 15.7812C94.4688 16.1771 94.5911 16.4948 94.8359 16.7344C95.0807 16.9688 95.4193 17.0859 95.8516 17.0859C96.263 17.0859 96.6354 16.9792 96.9688 16.7656C97.3073 16.5521 97.5599 16.2682 97.7266 15.9141C97.8932 15.5547 97.9766 15.0339 97.9766 14.3516V13.8359ZM100.93 8.16406V6.54688H102.078V8.16406H100.93ZM100.93 18V9.70312H102.078V18H100.93ZM103.852 18V9.70312H104.891V10.9609C105.156 10.3776 105.398 9.99219 105.617 9.80469C105.841 9.61198 106.091 9.51562 106.367 9.51562C106.753 9.51562 107.146 9.66667 107.547 9.96875L107.156 11.2734C106.87 11.0703 106.591 10.9688 106.32 10.9688C106.076 10.9688 105.852 11.0547 105.648 11.2266C105.445 11.3984 105.302 11.638 105.219 11.9453C105.073 12.4818 105 13.0521 105 13.6562V18H103.852ZM107.789 15.5234L108.93 15.3047C108.997 15.888 109.182 16.3229 109.484 16.6094C109.786 16.8906 110.188 17.0312 110.688 17.0312C111.188 17.0312 111.573 16.9089 111.844 16.6641C112.12 16.4141 112.258 16.099 112.258 15.7188C112.258 15.3906 112.141 15.1354 111.906 14.9531C111.745 14.8281 111.354 14.6719 110.734 14.4844C109.839 14.2083 109.24 13.974 108.938 13.7812C108.635 13.5885 108.401 13.3307 108.234 13.0078C108.068 12.6849 107.984 12.3177 107.984 11.9062C107.984 11.1979 108.211 10.6224 108.664 10.1797C109.117 9.73698 109.745 9.51562 110.547 9.51562C111.052 9.51562 111.495 9.60677 111.875 9.78906C112.26 9.97135 112.555 10.2161 112.758 10.5234C112.961 10.8307 113.102 11.2708 113.18 11.8438L112.055 12.0312C111.951 11.125 111.458 10.6719 110.578 10.6719C110.078 10.6719 109.706 10.7734 109.461 10.9766C109.216 11.1745 109.094 11.4297 109.094 11.7422C109.094 12.0495 109.211 12.2917 109.445 12.4688C109.586 12.5729 110.003 12.7396 110.695 12.9688C111.648 13.276 112.266 13.5208 112.547 13.7031C112.828 13.8802 113.047 14.125 113.203 14.4375C113.359 14.7448 113.438 15.112 113.438 15.5391C113.438 16.3307 113.185 16.9714 112.68 17.4609C112.18 17.9505 111.495 18.1953 110.625 18.1953C108.995 18.1953 108.049 17.3047 107.789 15.5234Z" fill="#F5F5F5"/>
</svg>
